<?xml version="1.0" encoding="UTF-8" standalone="no"?>
<svg width="400px" height="89px" viewBox="0 0 400 89" version="1.1" xmlns="http://www.w3.org/2000/svg" xmlns:xlink="http://www.w3.org/1999/xlink" xmlns:sketch="http://www.bohemiancoding.com/sketch/ns">
    <!-- Generator: Sketch 3.3 (11970) - http://www.bohemiancoding.com/sketch -->
    <title>composite-destination-in</title>
    <desc>Created with Sketch.</desc>
    <defs></defs>
    <g id="Page-1" stroke="none" stroke-width="1" fill="none" fill-rule="evenodd" sketch:type="MSPage">
        <g id="composite-destination-in" sketch:type="MSArtboardGroup">
            <rect id="Rectangle-45" stroke="#979797" fill="#FFFFFF" sketch:type="MSShapeGroup" x="13" y="15" width="96" height="67"></rect>
            <text id="source" sketch:type="MSTextLayer" font-family="Proxima Nova" font-size="9" font-weight="260" fill="#000000">
                <tspan x="13" y="12">source</tspan>
            </text>
            <rect id="Rectangle-45-Copy" stroke="#979797" fill="#FFFFFF" sketch:type="MSShapeGroup" x="143" y="15" width="96" height="67"></rect>
            <text id="destination" sketch:type="MSTextLayer" font-family="Proxima Nova" font-size="9" font-weight="260" fill="#000000">
                <tspan x="143" y="12">destination</tspan>
            </text>
            <rect id="Rectangle-45-Copy-2" stroke="#979797" fill="#FFFFFF" sketch:type="MSShapeGroup" x="273" y="15" width="96" height="67"></rect>
            <text id="destinatino-in" sketch:type="MSTextLayer" font-family="Proxima Nova" font-size="9" font-weight="260" fill="#000000">
                <tspan x="273" y="12">destinatino-in</tspan>
            </text>
            <rect id="Rectangle-48" fill="#1210E0" sketch:type="MSShapeGroup" x="40" y="31" width="36" height="35"></rect>
            <path d="M308.347683,31 L333.652317,31 C335.727511,32.4613524 337.538648,34.2724886 339,36.3476835 L339,61.6523165 C337.855798,63.2771414 336.497162,64.7400853 334.965239,66 L307.034761,66 C305.502838,64.7400853 304.144202,63.2771414 303,61.6523165 L303,36.3476835 C304.461352,34.2724886 306.272489,32.4613524 308.347683,31 Z" id="Rectangle-48-Copy" fill="#F8E71C" sketch:type="MSShapeGroup"></path>
            <circle id="Oval-4" fill="#F8E81C" sketch:type="MSShapeGroup" cx="191" cy="49" r="22"></circle>
        </g>
    </g>
</svg>