<?xml version="1.0" encoding="UTF-8" standalone="no"?>
<svg width="400px" height="89px" viewBox="0 0 400 89" version="1.1" xmlns="http://www.w3.org/2000/svg" xmlns:xlink="http://www.w3.org/1999/xlink" xmlns:sketch="http://www.bohemiancoding.com/sketch/ns">
    <!-- Generator: Sketch 3.3 (11970) - http://www.bohemiancoding.com/sketch -->
    <title>composite-destination-out</title>
    <desc>Created with Sketch.</desc>
    <defs></defs>
    <g id="Page-1" stroke="none" stroke-width="1" fill="none" fill-rule="evenodd" sketch:type="MSPage">
        <g id="composite-destination-out" sketch:type="MSArtboardGroup">
            <rect id="Rectangle-45" stroke="#979797" fill="#FFFFFF" sketch:type="MSShapeGroup" x="13" y="15" width="96" height="67"></rect>
            <text id="source" sketch:type="MSTextLayer" font-family="Proxima Nova" font-size="9" font-weight="260" fill="#000000">
                <tspan x="13" y="12">source</tspan>
            </text>
            <rect id="Rectangle-45-Copy" stroke="#979797" fill="#FFFFFF" sketch:type="MSShapeGroup" x="143" y="15" width="96" height="67"></rect>
            <text id="destination" sketch:type="MSTextLayer" font-family="Proxima Nova" font-size="9" font-weight="260" fill="#000000">
                <tspan x="143" y="12">destination</tspan>
            </text>
            <rect id="Rectangle-45-Copy-2" stroke="#979797" fill="#FFFFFF" sketch:type="MSShapeGroup" x="273" y="15" width="96" height="67"></rect>
            <text id="destination-out" sketch:type="MSTextLayer" font-family="Proxima Nova" font-size="9" font-weight="260" fill="#000000">
                <tspan x="273" y="12">destination-out</tspan>
            </text>
            <rect id="Rectangle-48" fill="#1210E0" sketch:type="MSShapeGroup" x="40" y="31" width="36" height="35"></rect>
            <path d="M334.965239,66 C331.166542,69.1242002 326.302329,71 321,71 C315.697671,71 310.833458,69.1242002 307.034761,66 L334.965239,66 Z M339,61.6523165 C341.520117,58.0736217 343,53.7096334 343,49 C343,44.2903666 341.520117,39.9263783 339,36.3476835 L339,61.6523165 Z M333.652317,31 C330.073622,28.4798828 325.709633,27 321,27 C316.290367,27 311.926378,28.4798828 308.347683,31 L333.652317,31 Z M303,36.3476835 C300.479883,39.9263783 299,44.2903666 299,49 C299,53.7096334 300.479883,58.0736217 303,61.6523165 L303,36.3476835 Z" id="Rectangle-48-Copy" fill="#F8E71C" sketch:type="MSShapeGroup"></path>
            <circle id="Oval-4" fill="#F8E81C" sketch:type="MSShapeGroup" cx="191" cy="49" r="22"></circle>
        </g>
    </g>
</svg>