<?xml version="1.0" encoding="UTF-8" standalone="no"?>
<svg width="300px" height="134px" viewBox="0 0 300 134" version="1.1" xmlns="http://www.w3.org/2000/svg" xmlns:xlink="http://www.w3.org/1999/xlink" xmlns:sketch="http://www.bohemiancoding.com/sketch/ns">
    <!-- Generator: Sketch 3.3.2 (12043) - http://www.bohemiancoding.com/sketch -->
    <title>structure_feature_style</title>
    <desc>Created with Sketch.</desc>
    <defs></defs>
    <g id="Page-1" stroke="none" stroke-width="1" fill="none" fill-rule="evenodd" sketch:type="MSPage">
        <g id="structure_feature_style" sketch:type="MSArtboardGroup">
            <rect id="box" stroke="#4A4A4A" fill="#F2F2F2" sketch:type="MSShapeGroup" x="31" y="6" width="239" height="122" rx="4"></rect>
            <text id="feature-style" sketch:type="MSTextLayer" font-family="Proxima Nova" font-size="10" font-weight="526" fill="#000000">
                <tspan x="56.5" y="15.8385093">feature-style</tspan>
            </text>
            <g id="feature_style" sketch:type="MSLayerGroup" transform="translate(34.500000, 9.354037)">
                <path d="M0.754882812,6.50254149 L5.75488281,0.423348942 L16.5048828,0.423348942 L11.5048828,6.50254149 L0.754882812,6.50254149 Z" id="border" stroke="#FFFFFF" fill="#F4D7BD" sketch:type="MSShapeGroup"></path>
                <path d="M0.754882812,6.50254149 L5.75488281,0.423348942 L16.5048828,0.423348942 L11.5048828,6.50254149 L0.754882812,6.50254149 Z" id="edge" stroke="#B1792C" sketch:type="MSShapeGroup"></path>
            </g>
            <text id="title:-Transportatio" sketch:type="MSTextLayer" font-family="Proxima Nova" font-size="10" font-weight="260" fill="#000000">
                <tspan x="56.5471698" y="40">title: Transportation</tspan>
            </text>
            <text id="name:-transport" sketch:type="MSTextLayer" font-family="Proxima Nova" font-size="10" font-weight="260" fill="#000000">
                <tspan x="56.5471698" y="28">name: transport</tspan>
            </text>
            <text id="abstract:-Road-and-r" sketch:type="MSTextLayer" font-family="Proxima Nova" font-size="10" font-weight="260" fill="#000000">
                <tspan x="56.5471698" y="51">abstract: Road and railway transportation routes</tspan>
            </text>
            <g id="rule" sketch:type="MSLayerGroup" transform="translate(56.500000, 58.000000)">
                <rect id="Rectangle-3-Copy" stroke="#000000" fill="#FFFFFF" sketch:type="MSShapeGroup" x="0" y="0" width="200" height="21" rx="5"></rect>
                <text sketch:type="MSTextLayer" font-family="Proxima Nova" font-size="10" font-weight="260" fill="#000000">
                    <tspan x="27" y="14">rule</tspan>
                </text>
                <g id="rule-copy" transform="translate(6.000000, 5.000000)" sketch:type="MSShapeGroup">
                    <path d="M7.5,0.0048828125 C7.5,0.0048828125 0.745117188,3.7069664 0.745117188,5.87154961 C0.745117187,8.03613281 7.5,12.0048828 7.5,12.0048828 L14.2451172,5.87154961 L7.5,0.0048828125 Z" id="interior" stroke="#FFFFFF" fill="#F4D7BD"></path>
                    <path d="M7.5,0.0048828125 C7.5,0.0048828125 0.745117188,3.7069664 0.745117188,5.87154961 C0.745117187,8.03613281 7.5,12.0048828 7.5,12.0048828 L14.2451172,5.87154961 L7.5,0.0048828125 Z" id="edge" stroke="#B1792C"></path>
                </g>
            </g>
            <g id="rule-copy-2" sketch:type="MSLayerGroup" transform="translate(56.500000, 78.000000)">
                <rect id="Rectangle-3-Copy" stroke="#000000" fill="#FFFFFF" sketch:type="MSShapeGroup" x="0" y="0" width="200" height="21" rx="5"></rect>
                <text id="rule" sketch:type="MSTextLayer" font-family="Proxima Nova" font-size="10" font-weight="260" fill="#000000">
                    <tspan x="27" y="14">rule</tspan>
                </text>
                <g id="rule-copy" transform="translate(6.000000, 5.000000)" sketch:type="MSShapeGroup">
                    <path d="M7.5,0.0048828125 C7.5,0.0048828125 0.745117188,3.7069664 0.745117188,5.87154961 C0.745117187,8.03613281 7.5,12.0048828 7.5,12.0048828 L14.2451172,5.87154961 L7.5,0.0048828125 Z" id="interior" stroke="#FFFFFF" fill="#F4D7BD"></path>
                    <path d="M7.5,0.0048828125 C7.5,0.0048828125 0.745117188,3.7069664 0.745117188,5.87154961 C0.745117187,8.03613281 7.5,12.0048828 7.5,12.0048828 L14.2451172,5.87154961 L7.5,0.0048828125 Z" id="edge" stroke="#B1792C"></path>
                </g>
            </g>
            <g id="rule-copy-3" sketch:type="MSLayerGroup" transform="translate(56.547170, 98.000000)">
                <rect id="Rectangle-3-Copy" stroke="#000000" fill="#FFFFFF" sketch:type="MSShapeGroup" x="0" y="0" width="200" height="21" rx="5"></rect>
                <text id="rule" sketch:type="MSTextLayer" font-family="Proxima Nova" font-size="10" font-weight="260" fill="#000000">
                    <tspan x="27" y="14">rule</tspan>
                </text>
                <g id="rule-copy" transform="translate(6.000000, 5.000000)" sketch:type="MSShapeGroup">
                    <path d="M7.5,0.0048828125 C7.5,0.0048828125 0.745117188,3.7069664 0.745117188,5.87154961 C0.745117187,8.03613281 7.5,12.0048828 7.5,12.0048828 L14.2451172,5.87154961 L7.5,0.0048828125 Z" id="interior" stroke="#FFFFFF" fill="#F4D7BD"></path>
                    <path d="M7.5,0.0048828125 C7.5,0.0048828125 0.745117188,3.7069664 0.745117188,5.87154961 C0.745117187,8.03613281 7.5,12.0048828 7.5,12.0048828 L14.2451172,5.87154961 L7.5,0.0048828125 Z" id="edge" stroke="#B1792C"></path>
                </g>
            </g>
        </g>
    </g>
</svg>