<?xml version="1.0" encoding="UTF-8" standalone="no"?>
<svg width="300px" height="134px" viewBox="0 0 300 134" version="1.1" xmlns="http://www.w3.org/2000/svg" xmlns:xlink="http://www.w3.org/1999/xlink" xmlns:sketch="http://www.bohemiancoding.com/sketch/ns">
    <!-- Generator: Sketch 3.3.2 (12043) - http://www.bohemiancoding.com/sketch -->
    <title>structure_rule</title>
    <desc>Created with Sketch.</desc>
    <defs></defs>
    <g id="Page-1" stroke="none" stroke-width="1" fill="none" fill-rule="evenodd" sketch:type="MSPage">
        <g id="structure_rule" sketch:type="MSArtboardGroup">
            <rect id="box" stroke="#4A4A4A" fill="#F2F2F2" sketch:type="MSShapeGroup" x="31" y="6" width="122" height="51" rx="4"></rect>
            <text id="feature-style" sketch:type="MSTextLayer" font-family="Proxima Nova" font-size="10" font-weight="260" fill="#000000">
                <tspan x="56.5" y="15.8385093">feature-style</tspan>
            </text>
            <g id="feature_style" sketch:type="MSLayerGroup" transform="translate(34.500000, 9.354037)">
                <path d="M0.754882812,6.50254149 L5.75488281,0.423348942 L16.5048828,0.423348942 L11.5048828,6.50254149 L0.754882812,6.50254149 Z" id="border" stroke="#FFFFFF" fill="#F4D7BD" sketch:type="MSShapeGroup"></path>
                <path d="M0.754882812,6.50254149 L5.75488281,0.423348942 L16.5048828,0.423348942 L11.5048828,6.50254149 L0.754882812,6.50254149 Z" id="edge" stroke="#B1792C" sketch:type="MSShapeGroup"></path>
            </g>
            <g id="rule" sketch:type="MSLayerGroup" transform="translate(55.500000, 23.000000)">
                <rect id="Rectangle-3-Copy" stroke="#000000" fill="#FFFFFF" sketch:type="MSShapeGroup" x="0" y="0" width="195" height="56" rx="5"></rect>
                <text id="rule:-hiways" sketch:type="MSTextLayer" font-family="Proxima Nova" font-size="10" font-weight="260" fill="#000000">
                    <tspan x="27" y="13">rule: hiways</tspan>
                </text>
                <text id="filter:-${category='" sketch:type="MSTextLayer" font-family="Proxima Nova" font-size="10" font-weight="260" fill="#000000">
                    <tspan x="27" y="25">filter: ${category='hiway'}</tspan>
                </text>
                <g id="rule-copy" transform="translate(6.000000, 5.000000)" sketch:type="MSShapeGroup">
                    <path d="M7.5,0.0048828125 C7.5,0.0048828125 0.745117188,3.7069664 0.745117188,5.87154961 C0.745117187,8.03613281 7.5,12.0048828 7.5,12.0048828 L14.2451172,5.87154961 L7.5,0.0048828125 Z" id="interior" stroke="#FFFFFF" fill="#F4D7BD"></path>
                    <path d="M7.5,0.0048828125 C7.5,0.0048828125 0.745117188,3.7069664 0.745117188,5.87154961 C0.745117187,8.03613281 7.5,12.0048828 7.5,12.0048828 L14.2451172,5.87154961 L7.5,0.0048828125 Z" id="edge" stroke="#B1792C"></path>
                </g>
            </g>
            <g id="rule-copy-3" sketch:type="MSLayerGroup" transform="translate(55.000000, 77.937888)">
                <rect id="Rectangle-3-Copy" stroke="#000000" fill="#FFFFFF" sketch:type="MSShapeGroup" x="0" y="0" width="195" height="51" rx="5"></rect>
                <text id="rule:-(unnamed)" sketch:type="MSTextLayer" font-family="Proxima Nova" font-size="10" font-weight="260">
                    <tspan x="27" y="13" fill="#000000">rule: </tspan>
                    <tspan x="48.16" y="13" fill="#9B9B9B">(unnamed)</tspan>
                </text>
                <text id="else:-true" sketch:type="MSTextLayer" font-family="Proxima Nova" font-size="10" font-weight="260" fill="#000000">
                    <tspan x="27" y="25">else: true</tspan>
                </text>
                <g id="rule-copy" transform="translate(6.000000, 5.000000)" sketch:type="MSShapeGroup">
                    <path d="M7.5,0.0048828125 C7.5,0.0048828125 0.745117188,3.7069664 0.745117188,5.87154961 C0.745117187,8.03613281 7.5,12.0048828 7.5,12.0048828 L14.2451172,5.87154961 L7.5,0.0048828125 Z" id="interior" stroke="#FFFFFF" fill="#F4D7BD"></path>
                    <path d="M7.5,0.0048828125 C7.5,0.0048828125 0.745117188,3.7069664 0.745117188,5.87154961 C0.745117187,8.03613281 7.5,12.0048828 7.5,12.0048828 L14.2451172,5.87154961 L7.5,0.0048828125 Z" id="edge" stroke="#B1792C"></path>
                </g>
            </g>
            <g id="symbolizer" sketch:type="MSLayerGroup" transform="translate(82.000000, 53.000000)">
                <rect id="symbolizer_box" stroke="#4A4A4A" fill="#FFFFFF" sketch:type="MSShapeGroup" x="0" y="0" width="163" height="20"></rect>
                <text id="linestring-symbolize" sketch:type="MSTextLayer" font-family="Proxima Nova" font-size="10" font-weight="260" fill="#000000">
                    <tspan x="21" y="12">linestring symbolizer</tspan>
                </text>
                <g id="linestring_icon" transform="translate(4.000000, 3.000000)" stroke="#5D74BC" sketch:type="MSShapeGroup">
                    <path d="M1.28727214,1.00708008 L1.28727214,10.1871745 L9.6402181,1.00708008 L9.6402181,10.1871745" id="Path-70" stroke-width="1.5" stroke-linecap="round" stroke-linejoin="round"></path>
                    <circle id="Oval-1" fill="#27A4F1" cx="1.375" cy="1.375" r="1.375"></circle>
                    <circle id="Oval-1-copy" fill="#27A4F1" cx="1.375" cy="9.625" r="1.375"></circle>
                    <circle id="Oval-1-copy-2" fill="#27A4F1" cx="9.625" cy="1.375" r="1.375"></circle>
                    <circle id="Oval-1-copy-3" fill="#27A4F1" cx="9.625" cy="9.625" r="1.375"></circle>
                </g>
            </g>
            <g id="symbolizer-other" sketch:type="MSLayerGroup" transform="translate(82.000000, 105.000000)">
                <rect id="symbolizer_box" stroke="#4A4A4A" fill="#FFFFFF" sketch:type="MSShapeGroup" x="0" y="0" width="163" height="20"></rect>
                <text id="linestring-symbolize" sketch:type="MSTextLayer" font-family="Proxima Nova" font-size="10" font-weight="260" fill="#000000">
                    <tspan x="21" y="12">linestring symbolizer</tspan>
                </text>
                <g id="linestring_icon" transform="translate(4.000000, 3.000000)" stroke="#4A4A4A" sketch:type="MSShapeGroup">
                    <path d="M1.28727214,1.00708008 L1.28727214,10.1871745 L9.6402181,1.00708008 L9.6402181,10.1871745" id="Path-70" stroke-width="1.5" stroke-linecap="round" stroke-linejoin="round"></path>
                    <circle id="Oval-1" fill="#27A4F1" cx="1.375" cy="1.375" r="1.375"></circle>
                    <circle id="Oval-1-copy" fill="#27A4F1" cx="1.375" cy="9.625" r="1.375"></circle>
                    <circle id="Oval-1-copy-2" fill="#27A4F1" cx="9.625" cy="1.375" r="1.375"></circle>
                    <circle id="Oval-1-copy-3" fill="#27A4F1" cx="9.625" cy="9.625" r="1.375"></circle>
                </g>
            </g>
        </g>
    </g>
</svg>